<?xml version="1.0" encoding="UTF-8" standalone="no"?>
<svg
   xmlns:dc="http://purl.org/dc/elements/1.1/"
   xmlns:cc="http://creativecommons.org/ns#"
   xmlns:rdf="http://www.w3.org/1999/02/22-rdf-syntax-ns#"
   xmlns:svg="http://www.w3.org/2000/svg"
   xmlns="http://www.w3.org/2000/svg"
   viewBox="0 0 593.74664 199.82668"
   height="199.82668"
   width="593.74664"
   xml:space="preserve"
   id="svg2"
   version="1.1"><metadata
     id="metadata8"><rdf:RDF><cc:Work
         rdf:about=""><dc:format>image/svg+xml</dc:format><dc:type
           rdf:resource="http://purl.org/dc/dcmitype/StillImage" /></cc:Work></rdf:RDF></metadata><defs
     id="defs6" /><g
     transform="matrix(1.3333333,0,0,-1.3333333,0,199.82667)"
     id="g10"><g
       transform="scale(0.1)"
       id="g12"><path
         id="path14"
         style="fill:#ffffff;fill-opacity:1;fill-rule:nonzero;stroke:none"
         d="m 2765.74,1325.03 v 91.46 h 58.75 c 0,-0.01 0,82.22 0,82.22 h -301.66 v -173.68 h 242.91" /><path
         id="path16"
         style="fill:#ffffff;fill-opacity:1;fill-rule:nonzero;stroke:none"
         d="m 2678.96,1355.26 -104.88,-92.98 54.88,137.26 z" /><path
         id="path18"
         style="fill:#ffffff;fill-opacity:1;fill-rule:nonzero;stroke:none"
         d="m 2988.49,1259.38 h -212.73 v 147.02 h 212.73 v -147.02" /><path
         id="path20"
         style="fill:#ffffff;fill-opacity:1;fill-rule:nonzero;stroke:none"
         d="m 2920.55,1330.12 46.7,-103.42 -92.94,75.39 z" /><path
         id="path22"
         style="fill:#ffffff;fill-opacity:1;fill-rule:nonzero;stroke:none"
         d="m 2720.7,1116.49 c 0,-57.99 -47.01,-105 -105,-105 -57.99,0 -105,47.01 -105,105 0,57.99 47.01,105 105,105 57.99,0 105,-47.01 105,-105" /><path
         id="path24"
         style="fill:#ffffff;fill-opacity:1;fill-rule:nonzero;stroke:none"
         d="m 3005.96,1116.49 c 0,-57.99 -47.01,-105 -105,-105 -57.99,0 -105,47.01 -105,105 0,57.99 47.01,105 105,105 57.99,0 105,-47.01 105,-105" /><path
         id="path26"
         style="fill:#ffffff;fill-opacity:1;fill-rule:nonzero;stroke:none"
         d="m 187.813,598.508 c 0,-66.875 15.871,-118.067 47.609,-153.61 31.734,-35.546 70.871,-53.328 117.43,-53.328 46.546,0 85.586,17.782 117.113,53.328 31.519,35.543 47.293,87.165 47.293,154.879 0,66.016 -15.774,116.793 -47.293,152.34 -31.527,35.547 -70.567,53.321 -117.113,53.321 -46.559,0 -85.696,-17.774 -117.43,-53.321 C 203.684,716.57 187.813,665.363 187.813,598.508 Z M 5,608.031 C 5,667.27 19.5977,724.602 48.7969,780.047 77.9961,835.48 119.355,877.801 172.895,907 c 53.531,29.199 113.304,43.801 179.324,43.801 101.976,0 185.558,-33.117 250.73,-99.344 65.16,-66.234 97.754,-149.91 97.754,-251.043 0,-101.992 -32.91,-186.523 -98.707,-253.594 -65.805,-67.07 -148.641,-100.609 -248.512,-100.609 -61.789,0 -120.711,13.969 -176.781,41.898 C 120.625,316.039 77.9961,356.98 48.7969,410.941 19.5977,464.891 5,530.59 5,608.031" /><path
         id="path28"
         style="fill:none;stroke:#ffffff;stroke-width:10;stroke-linecap:butt;stroke-linejoin:miter;stroke-miterlimit:10;stroke-dasharray:none;stroke-opacity:1"
         d="m 187.813,598.508 c 0,-66.875 15.871,-118.067 47.609,-153.61 31.734,-35.546 70.871,-53.328 117.43,-53.328 46.546,0 85.586,17.782 117.113,53.328 31.519,35.543 47.293,87.165 47.293,154.879 0,66.016 -15.774,116.793 -47.293,152.34 -31.527,35.547 -70.567,53.321 -117.113,53.321 -46.559,0 -85.696,-17.774 -117.43,-53.321 C 203.684,716.57 187.813,665.363 187.813,598.508 Z M 5,608.031 C 5,667.27 19.5977,724.602 48.7969,780.047 77.9961,835.48 119.355,877.801 172.895,907 c 53.531,29.199 113.304,43.801 179.324,43.801 101.976,0 185.558,-33.117 250.73,-99.344 65.16,-66.234 97.754,-149.91 97.754,-251.043 0,-101.992 -32.91,-186.523 -98.707,-253.594 -65.805,-67.07 -148.641,-100.609 -248.512,-100.609 -61.789,0 -120.711,13.969 -176.781,41.898 C 120.625,316.039 77.9961,356.98 48.7969,410.941 19.5977,464.891 5,530.59 5,608.031 Z" /><path
         id="path30"
         style="fill:#ffffff;fill-opacity:1;fill-rule:nonzero;stroke:none"
         d="m 941.539,609.934 c 0,-75.762 15.016,-131.704 45.066,-167.903 30.045,-36.172 66.655,-54.261 109.815,-54.261 41.47,0 75.95,16.601 103.47,49.832 27.5,33.207 41.26,87.683 41.26,163.445 0,70.664 -14.19,123.141 -42.53,157.418 -28.36,34.277 -63.48,51.418 -105.37,51.418 -43.59,0 -79.77,-16.824 -108.547,-50.465 -28.785,-33.645 -43.164,-83.469 -43.164,-149.484 z M 765.074,935.563 h 166.309 v -99.024 c 21.582,33.856 50.781,61.356 87.597,82.52 36.82,21.16 77.65,31.742 122.51,31.742 78.29,0 144.73,-30.692 199.32,-92.043 54.59,-61.363 81.88,-146.852 81.88,-256.442 0,-112.578 -27.51,-200.054 -82.52,-262.464 -55.01,-62.442 -121.66,-93.641 -199.95,-93.641 -37.24,0 -71,7.418 -101.25,22.219 -30.25,14.808 -62.107,40.199 -95.529,76.172 V 5 H 765.074 v 930.563" /><path
         id="path32"
         style="fill:none;stroke:#ffffff;stroke-width:10;stroke-linecap:butt;stroke-linejoin:miter;stroke-miterlimit:10;stroke-dasharray:none;stroke-opacity:1"
         d="m 941.539,609.934 c 0,-75.762 15.016,-131.704 45.066,-167.903 30.045,-36.172 66.655,-54.261 109.815,-54.261 41.47,0 75.95,16.601 103.47,49.832 27.5,33.207 41.26,87.683 41.26,163.445 0,70.664 -14.19,123.141 -42.53,157.418 -28.36,34.277 -63.48,51.418 -105.37,51.418 -43.59,0 -79.77,-16.824 -108.547,-50.465 -28.785,-33.645 -43.164,-83.469 -43.164,-149.484 z M 765.074,935.563 h 166.309 v -99.024 c 21.582,33.856 50.781,61.356 87.597,82.52 36.82,21.16 77.65,31.742 122.51,31.742 78.29,0 144.73,-30.692 199.32,-92.043 54.59,-61.363 81.88,-146.852 81.88,-256.442 0,-112.578 -27.51,-200.054 -82.52,-262.464 -55.01,-62.442 -121.66,-93.641 -199.95,-93.641 -37.24,0 -71,7.418 -101.25,22.219 -30.25,14.808 -62.107,40.199 -95.529,76.172 V 5 H 765.074 Z" /><path
         id="path34"
         style="fill:#ffffff;fill-opacity:1;fill-rule:nonzero;stroke:none"
         d="m 1494.04,261.449 v 674.114 h 178.37 V 261.449 h -178.37" /><path
         id="path36"
         style="fill:none;stroke:#ffffff;stroke-width:10;stroke-linecap:butt;stroke-linejoin:miter;stroke-miterlimit:10;stroke-dasharray:none;stroke-opacity:1"
         d="m 1494.04,261.449 v 674.114 h 178.37 V 261.449 Z" /><path
         id="path38"
         style="fill:#ffffff;fill-opacity:1;fill-rule:nonzero;stroke:none"
         d="m 2398.21,261.449 h -178.37 v 344.043 c 0,72.774 -3.81,119.856 -11.43,141.231 -7.61,21.363 -19.99,37.976 -37.13,49.828 -17.14,11.84 -37.77,17.773 -61.89,17.773 -30.89,0 -58.62,-8.472 -83.15,-25.39 -24.55,-16.93 -41.37,-39.356 -50.47,-67.286 -9.1,-27.925 -13.65,-79.566 -13.65,-154.878 V 261.449 h -178.37 v 674.114 h 165.68 v -99.024 c 58.81,76.176 132.87,114.262 222.17,114.262 39.35,0 75.31,-7.09 107.91,-21.266 32.58,-14.187 57.22,-32.277 73.95,-54.273 16.71,-22.008 28.34,-46.973 34.91,-74.903 6.56,-27.929 9.84,-67.921 9.84,-119.964 V 261.449" /><path
         id="path40"
         style="fill:none;stroke:#ffffff;stroke-width:10;stroke-linecap:butt;stroke-linejoin:miter;stroke-miterlimit:10;stroke-dasharray:none;stroke-opacity:1"
         d="m 2398.21,261.449 h -178.37 v 344.043 c 0,72.774 -3.81,119.856 -11.43,141.231 -7.61,21.363 -19.99,37.976 -37.13,49.828 -17.14,11.84 -37.77,17.773 -61.89,17.773 -30.89,0 -58.62,-8.472 -83.15,-25.39 -24.55,-16.93 -41.37,-39.356 -50.47,-67.286 -9.1,-27.925 -13.65,-79.566 -13.65,-154.878 V 261.449 h -178.37 v 674.114 h 165.68 v -99.024 c 58.81,76.176 132.87,114.262 222.17,114.262 39.35,0 75.31,-7.09 107.91,-21.266 32.58,-14.187 57.22,-32.277 73.95,-54.273 16.71,-22.008 28.34,-46.973 34.91,-74.903 6.56,-27.929 9.84,-67.921 9.84,-119.964 z" /><path
         id="path42"
         style="fill:#ffffff;fill-opacity:1;fill-rule:nonzero;stroke:none"
         d="m 3252.59,598.508 c 0,-66.875 15.87,-118.067 47.61,-153.61 31.74,-35.546 70.88,-53.328 117.43,-53.328 46.54,0 85.59,17.782 117.11,53.328 31.52,35.543 47.3,87.165 47.3,154.879 0,66.016 -15.78,116.793 -47.3,152.34 -31.52,35.547 -70.57,53.321 -117.11,53.321 -46.55,0 -85.69,-17.774 -117.43,-53.321 -31.74,-35.547 -47.61,-86.754 -47.61,-153.609 z m -182.81,9.523 c 0,59.239 14.6,116.571 43.8,172.016 29.2,55.433 70.56,97.754 124.09,126.953 53.54,29.199 113.31,43.801 179.33,43.801 101.98,0 185.55,-33.117 250.73,-99.344 65.17,-66.234 97.75,-149.91 97.75,-251.043 0,-101.992 -32.91,-186.523 -98.71,-253.594 -65.8,-67.07 -148.64,-100.609 -248.5,-100.609 -61.79,0 -120.72,13.969 -176.79,41.898 -56.07,27.93 -98.7,68.871 -127.9,122.832 -29.2,53.95 -43.8,119.649 -43.8,197.09" /><path
         id="path44"
         style="fill:none;stroke:#ffffff;stroke-width:10;stroke-linecap:butt;stroke-linejoin:miter;stroke-miterlimit:10;stroke-dasharray:none;stroke-opacity:1"
         d="m 3252.59,598.508 c 0,-66.875 15.87,-118.067 47.61,-153.61 31.74,-35.546 70.88,-53.328 117.43,-53.328 46.54,0 85.59,17.782 117.11,53.328 31.52,35.543 47.3,87.165 47.3,154.879 0,66.016 -15.78,116.793 -47.3,152.34 -31.52,35.547 -70.57,53.321 -117.11,53.321 -46.55,0 -85.69,-17.774 -117.43,-53.321 -31.74,-35.547 -47.61,-86.754 -47.61,-153.609 z m -182.81,9.523 c 0,59.239 14.6,116.571 43.8,172.016 29.2,55.433 70.56,97.754 124.09,126.953 53.54,29.199 113.31,43.801 179.33,43.801 101.98,0 185.55,-33.117 250.73,-99.344 65.17,-66.234 97.75,-149.91 97.75,-251.043 0,-101.992 -32.91,-186.523 -98.71,-253.594 -65.8,-67.07 -148.64,-100.609 -248.5,-100.609 -61.79,0 -120.72,13.969 -176.79,41.898 -56.07,27.93 -98.7,68.871 -127.9,122.832 -29.2,53.95 -43.8,119.649 -43.8,197.09 z" /><path
         id="path46"
         style="fill:#ffffff;fill-opacity:1;fill-rule:nonzero;stroke:none"
         d="m 4448.12,261.449 h -178.37 v 344.043 c 0,72.774 -3.81,119.856 -11.42,141.231 -7.62,21.363 -20,37.976 -37.13,49.828 -17.15,11.84 -37.78,17.773 -61.9,17.773 -30.9,0 -58.61,-8.472 -83.15,-25.39 -24.55,-16.93 -41.37,-39.356 -50.46,-67.286 -9.11,-27.925 -13.65,-79.566 -13.65,-154.878 V 261.449 h -178.37 v 674.114 h 165.67 v -99.024 c 58.82,76.176 132.87,114.262 222.17,114.262 39.35,0 75.32,-7.09 107.91,-21.266 32.58,-14.187 57.23,-32.277 73.94,-54.273 16.72,-22.008 28.35,-46.973 34.93,-74.903 6.55,-27.929 9.83,-67.921 9.83,-119.964 V 261.449" /><path
         id="path48"
         style="fill:none;stroke:#ffffff;stroke-width:10;stroke-linecap:butt;stroke-linejoin:miter;stroke-miterlimit:10;stroke-dasharray:none;stroke-opacity:1"
         d="m 4448.12,261.449 h -178.37 v 344.043 c 0,72.774 -3.81,119.856 -11.42,141.231 -7.62,21.363 -20,37.976 -37.13,49.828 -17.15,11.84 -37.78,17.773 -61.9,17.773 -30.9,0 -58.61,-8.472 -83.15,-25.39 -24.55,-16.93 -41.37,-39.356 -50.46,-67.286 -9.11,-27.925 -13.65,-79.566 -13.65,-154.878 V 261.449 h -178.37 v 674.114 h 165.67 v -99.024 c 58.82,76.176 132.87,114.262 222.17,114.262 39.35,0 75.32,-7.09 107.91,-21.266 32.58,-14.187 57.23,-32.277 73.94,-54.273 16.72,-22.008 28.35,-46.973 34.93,-74.903 6.55,-27.929 9.83,-67.921 9.83,-119.964 z" /><path
         id="path50"
         style="fill:#ffffff;fill-opacity:1;fill-rule:nonzero;stroke:none"
         d="m 1688.23,1116.49 c 0,-57.99 -47.01,-105 -105,-105 -57.99,0 -105,47.01 -105,105 0,57.99 47.01,105 105,105 57.99,0 105,-47.01 105,-105" /><path
         id="path52"
         style="fill:#ffffff;fill-opacity:1;fill-rule:nonzero;stroke:none"
         d="m 2690.04,256.57 h -148.68 v 364.621 h 148.68 V 256.57" /><path
         id="path54"
         style="fill:#ffffff;fill-opacity:1;fill-rule:nonzero;stroke:none"
         d="m 2742.15,936.488 h 317.61 l -53.31,-315.297 h -214.88 l -49.42,315.297" /><path
         id="path56"
         style="fill:#ffffff;fill-opacity:1;fill-rule:nonzero;stroke:none"
         d="M 2975.3,256.488 H 2826.62 V 621.191 H 2975.3 V 256.488" /><path
         id="path58"
         style="fill:#ffffff;fill-opacity:1;fill-rule:nonzero;stroke:none"
         d="M 2774.51,621.191 H 2456.9 l 56.75,315.297 h 214.99 l 45.87,-315.297" /></g></g></svg>